<svg version="1.1" id="Layer_2"
	xmlns="http://www.w3.org/2000/svg"
	xmlns:xlink="http://www.w3.org/1999/xlink" x="0px" y="0px" viewBox="0 0 1354 156" style="enable-background:new 0 0 1354 156;" xml:space="preserve">
	<style type="text/css">
	.st0{enable-background:new    ;}
	.st1{fill:#646057;}
	</style>
	<g class="st0">
		<path class="st1" d="M75.4,7.3v98.4h13.5v3.3H44.5v-3.3H58V7.3h-1.2c-3.6,15.4-6.6,28.1-9.1,38.2c-2.5,10.1-4.5,18.2-6.2,24.3
		c-1.6,6.1-2.9,10.8-3.8,13.9c-0.9,3.1-1.6,5.4-2.1,6.9c-1.4,4.2-2.8,7.6-4.3,10.2c-1.5,2.6-3,4.6-4.5,6.1c-1.6,1.5-3.1,2.4-4.8,2.9
		c-1.6,0.5-3.3,0.8-5,0.8c-4.5,0-8.2-1.3-10.9-3.9C3.3,104,1.9,100.2,1.9,95c0-3.4,0.8-6.2,2.5-8.4c1.6-2.2,4.1-3.3,7.4-3.3
		c1.7,0,3.2,0.3,4.4,0.9c1.2,0.6,2.3,1.4,3,2.3c0.8,1,1.3,2,1.6,3.1c0.3,1.1,0.5,2.2,0.5,3.1c0,1.5-0.3,2.8-0.8,4
		c-0.5,1.2-1,2.1-1.5,2.9c-0.8,1.1-1.4,2.1-1.9,2.9c-0.5,0.9-0.7,1.7-0.7,2.6c0,1.4,0.8,2.1,2.3,2.1c1.4,0,3.2-0.9,5.5-2.8
		c2.3-1.8,4.4-5.3,6.4-10.3c0.5-1.3,1.1-3,1.8-5.2c0.7-2.1,1.4-4.4,2.2-6.8c0.8-2.4,1.4-4.8,2.1-7.2c0.6-2.4,1.2-4.5,1.7-6.3l6.1-25
		c0.8-3.2,1.6-6.5,2.5-10c0.8-3.5,1.6-6.8,2.4-10c0.8-3.2,1.5-6.2,2.2-9.1c0.7-2.8,1.3-5.3,1.8-7.4H40.5V4h48.5v3.3H75.4z"/>
		<path class="st1" d="M168.9,7.3h-13.5V4h44.4v3.3h-13.5v98.4h13.5v3.3h-44.4v-3.3h13.5V23l-37.6,73.8v8.9h13.5v3.3h-44.4v-3.3h13.5
		V7.3h-13.5V4h44.4v3.3h-13.5v83.1l37.6-74V7.3z"/>
		<path class="st1" d="M224.7,7.3h-13.5V4h44.4v3.3h-13.5v45.5h9.3h0.3c0.6,0,1.4,0,2.5-0.2c1-0.1,2.1-0.3,3.3-0.8
		c1.1-0.4,2.3-1,3.5-1.9c1.1-0.9,2.2-2.2,3.1-3.9c0.9-1.7,1.5-4,1.9-6.9c0.3-2.9,0.5-5.3,0.5-7.3v-6.6c0-1.5,0-3.2,0.1-5
		c0.1-1.8,0.3-3.6,0.8-5.4c0.4-1.8,1-3.5,1.8-5.2c0.8-1.7,1.9-3.1,3.3-4.3c1-0.9,2.4-1.7,4.1-2.5c1.7-0.8,3.9-1.1,6.5-1.1
		c1.8,0,3.6,0.2,5.3,0.7c1.7,0.5,3.3,1.2,4.7,2.2c1.3,1,2.4,2.3,3.3,3.8c0.8,1.5,1.3,3.3,1.3,5.4c0,4.1-1.1,7.1-3.2,8.9
		c-2.2,1.9-4.5,2.8-7,2.8c-2.4,0-4.6-0.8-6.7-2.5c-2.1-1.7-3.1-4.2-3.1-7.5c0-1.1,0.1-2.3,0.4-3.5c0.3-1.2,0.8-2.2,1.4-3
		c0.5-0.9,1-1.5,1.5-1.8c0.5-0.3,0.8-0.6,0.8-0.9c0-0.2-0.2-0.5-0.6-0.8c-0.4-0.3-1-0.5-1.6-0.5c-0.8,0-1.8,0.3-3,0.8
		c-1.2,0.6-2.4,1.7-3.5,3.4c-1.6,2.4-2.5,4.8-2.8,7.3c-0.3,2.5-0.5,4.8-0.5,7.1v1.2v5.7c0,6.6-0.8,11.8-2.3,15.5
		c-1.5,3.7-4,6.2-7.6,7.5v0.9c4.2,0.2,7.8,0.7,10.9,1.6c3,0.9,5.6,2,7.8,3.4c2.1,1.4,3.9,3,5.3,4.7c1.4,1.8,2.4,3.6,3.2,5.5
		c1,2.4,1.6,5.1,2,8c0.3,3,0.5,6.4,0.8,10.3c0.2,4.6,0.4,7.9,0.8,9.8c0.3,1.9,0.7,3.4,1.2,4.5c1.1,2.1,2.3,3.4,3.8,3.8
		c1.4,0.5,2.9,0.7,4.6,0.7l2.9-0.1v3.3c-0.7,0.1-1.6,0.2-2.5,0.2c-1,0-2.1,0.1-3.1,0.1c-1.8,0-3.7-0.1-5.8-0.3
		c-2.1-0.2-4-0.6-5.9-1.1c-1.9-0.5-3.7-1.2-5.3-2.1c-1.6-0.8-3-1.9-4-3.2c-2.8-3.4-4.5-9.8-5.1-19.3c-0.2-2.4-0.3-4.5-0.4-6.3
		c-0.1-1.8-0.1-3.4-0.2-4.9c-0.1-1.4-0.3-2.8-0.5-4c-0.3-1.2-0.6-2.3-1-3.5c-0.9-2.2-2-3.9-3.3-5.2c-1.3-1.2-2.6-2.2-4-2.8
		c-1.4-0.6-2.6-1-3.8-1.1c-1.2-0.2-2.1-0.2-2.8-0.2h-13.1v49.7l13.5-0.2v3.5h-44.4v-3.3l13.5-0.2V7.3z"/>
		<path class="st1" d="M379.5,7.3H366V4h44.4v3.3h-13.5v98.4h13.5v3.3H366v-3.3h13.5V23l-37.6,73.8v8.9h13.5v3.3h-44.4v-3.3h13.5V7.3
		h-13.5V4h44.4v3.3h-13.5v83.1l37.6-74V7.3z"/>
		<path class="st1" d="M537.3,35.3H534c-0.5-4.8-1.8-9.2-4-13.2c-2.2-4-5.5-7.4-10.1-10.1c-3.6-2.1-7.1-3.4-10.6-4
		c-3.5-0.5-6.9-0.8-10.4-0.8h-10.2v98.4h13.5v3.3h-44.4v-3.3h13.5V7.3h-13.5V4h78.3L537.3,35.3z"/>
		<path class="st1" d="M602.8,79.4v-20c-1.2-1.3-2.7-2.4-4.6-3.4c-1.9-0.9-3.6-1.4-5.3-1.4c-1.2,0-2.4,0.3-3.5,0.8
		c-1.2,0.6-2.3,1.2-3.4,2c-1.1,0.8-2.2,1.6-3.3,2.5c-1.1,0.9-2.2,1.8-3.1,2.5c-1.8,1.4-4,2.8-6.6,4c-2.6,1.3-5.7,2-9.1,2
		c-2.7,0-5.3-0.5-7.7-1.6s-4.6-2.4-6.6-4.1c-2-1.7-3.5-3.5-4.6-5.3s-1.8-3.3-2.3-4.6h3.3c1.2,2.6,2.7,4.6,4.6,6
		c1.8,1.4,3.5,2.1,5,2.1c1.7,0,3.5-0.8,5.5-2.3c2-1.5,4.3-3.2,7-5.3c2.2-1.6,4.5-3,6.8-4.3c2.3-1.2,5.1-1.9,8.2-1.9
		c3.2,0,6.6,0.8,10.2,2.5c3.6,1.6,6.7,3.6,9.3,5.8v-3.9c0-2.8-0.1-5.8-0.2-9.1c-0.1-3.2-0.3-6.4-0.4-9.5c-0.2-3.1-0.5-6-0.8-8.7
		c-0.4-2.7-0.8-4.9-1.4-6.6c-1.5-4.5-3.7-7.7-6.5-9.8c-2.8-2-6.7-3-11.5-3c-1.2,0-2.7,0.1-4.4,0.4c-1.7,0.3-3.6,0.9-5.5,1.8
		c-2,1-4.1,2.4-6.4,4.4s-4.5,4.6-6.7,7.9c-1.7,2.5-3.1,5-4.3,7.6c-1.2,2.5-2.1,5-2.9,7.3h-3c0.4-1.4,0.9-3.7,1.4-6.8
		c0.5-3.1,0.8-7.5,0.8-13c0-2-0.1-3.8-0.2-5.3c-0.2-1.5-0.3-3-0.5-4.7h3c0.4,1.3,1.1,2.4,2,3.2c0.9,0.9,2,1.3,3.2,1.3
		c1.3,0,2.7-0.4,4.2-1.2c1.5-0.8,3.4-1.7,5.7-2.9c2.1-1.1,4.2-1.9,6.3-2.5c2.1-0.5,4.3-0.8,6.8-0.8c1.9,0,4.1,0.2,6.7,0.7
		s5.3,1.4,8.1,2.7c2.9,1.3,5.8,3.2,8.7,5.5c2.9,2.4,5.8,5.5,8.5,9.4c4,5.9,6.8,12,8.3,18.4c1.5,6.4,2.3,13.1,2.3,20.2
		c0,3.4-0.4,7.4-1.1,11.9s-2.5,9.5-5.2,14.8c-1.6,3.2-3.6,6.4-5.9,9.5c-2.4,3.1-5,5.8-8,8.3c-3,2.4-6.2,4.3-9.6,5.8
		c-3.5,1.5-7,2.3-10.7,2.3c-3.2,0-5.8-0.4-7.9-1.3c-2.1-0.8-3.6-1.6-4.7-2.2c-2-1.1-3.9-2.2-5.8-3.2c-1.9-1-3.8-1.6-5.8-1.6
		c-0.9,0-2,0.2-3.2,0.5c-1.3,0.3-2.4,1-3.5,2c-1,1-1.9,2.4-2.7,4.2s-1.1,4.1-1.1,7c0,3.5,0.4,6.4,1.2,8.6c0.8,2.3,1.4,3.7,1.8,4.4
		l-3,1.8c-0.8-1.3-1.7-3-2.7-5c-1-2.1-2-4.3-3-6.7c-1-2.4-1.8-4.9-2.5-7.6c-0.7-2.6-1-5.2-1-7.7c0-2.5,0.3-4.7,1-6.5
		c0.7-1.8,1.6-3.4,2.6-4.6s2.3-2.1,3.6-2.6c1.3-0.5,2.7-0.8,4-0.8c1.6,0,3.2,0.3,4.7,1c1.5,0.7,3,1.5,4.4,2.5c1.4,1,2.8,2.2,4.1,3.5
		c1.3,1.3,2.7,2.6,4,3.8c1.9,1.8,4.1,3.5,6.6,5c2.5,1.5,5.6,2.3,9.5,2.3c4,0,7.1-0.9,9.5-2.8c2.3-1.8,4-3.7,5.1-5.6
		c0.7-1.3,1.3-2.8,1.9-4.5c0.5-1.7,1-3.4,1.3-5.2c0.3-1.8,0.5-3.6,0.7-5.4C602.7,82.5,602.8,80.9,602.8,79.4z"/>
		<path class="st1" d="M709.2,3.3h3c-0.4,2.2-0.6,4.2-0.7,5.9c-0.1,1.8-0.1,3.6-0.1,5.5v3.9c0,1.7,0,3.1,0,4.2c0,1.1,0,2.1,0.1,3.1
		c0,1,0.1,1.9,0.2,2.8c0,0.9,0.1,2,0.2,3.2h-3.3c-0.6-4-1.7-7.6-3.4-10.9c-1.7-3.2-3.6-6-5.9-8.4c-2.3-2.3-4.9-4.2-7.7-5.5
		c-2.8-1.3-5.7-2-8.5-2c-2.9,0-5.3,0.5-7.3,1.5c-2,1-3.5,2.2-4.7,3.7s-2.1,2.9-2.7,4.4c-0.6,1.5-1,2.7-1.3,3.6
		c-0.4,1.5-0.8,3.3-1.1,5.4c-0.4,2.1-0.7,4.3-1,6.7c-0.3,2.3-0.5,4.7-0.7,7s-0.2,4.3-0.2,6.1v28c0,3.9,0.2,8,0.5,12.3
		c0.3,4.3,1.1,8.2,2.3,11.8c1.2,3.6,3,6.5,5.5,8.8c2.4,2.3,5.8,3.4,10,3.4c3.2,0,6.7-0.9,10.5-2.7c3.8-1.8,7.2-4.7,10.3-8.8
		c1.8-2.4,3.4-5.1,4.8-8.3c1.4-3.1,2.4-6.2,3.2-9.5h3.3c-0.3,2.8-0.5,5.3-0.6,7.6c-0.1,2.3-0.2,5.1-0.2,8.6c0,2.5,0,4.7,0.2,6.7
		c0.1,2,0.5,4.2,1.2,6.8l-2,1.1c-1.1-1.4-2.5-2.7-4.3-3.9c-1.8-1.1-3.4-1.7-5-1.7c-1.7,0-3.3,0.4-4.9,1.2c-1.6,0.8-2.9,1.6-4.1,2.4
		c-1.1,0.7-2.7,1.5-4.8,2.4c-2.1,0.9-4.9,1.3-8.4,1.3c-4.4,0-8.5-0.9-12.2-2.7c-3.8-1.8-7.4-4.4-10.9-7.7
		c-5.9-5.7-10-11.9-12.1-18.7c-2.2-6.8-3.3-13.6-3.3-20.5c0-8.4,0.9-15.7,2.6-22c1.7-6.2,4.4-12.2,8-17.8c3.1-4.7,6.3-8.4,9.5-11.1
		c3.2-2.7,6.3-4.7,9.1-6.1c2.8-1.3,5.3-2.2,7.4-2.5c2.1-0.3,3.7-0.5,4.6-0.5c2.6,0,4.8,0.4,6.6,1.1s3.2,1.4,4.3,1.9
		c1.4,0.8,2.7,1.5,4,2c1.2,0.5,2.5,0.8,3.8,0.8C705.8,7.5,707.9,6.1,709.2,3.3z"/>
		<path class="st1" d="M794.7,79.4v-20c-1.2-1.3-2.7-2.4-4.6-3.4c-1.9-0.9-3.6-1.4-5.3-1.4c-1.2,0-2.4,0.3-3.5,0.8
		c-1.2,0.6-2.3,1.2-3.4,2c-1.1,0.8-2.2,1.6-3.3,2.5c-1.1,0.9-2.2,1.8-3.1,2.5c-1.8,1.4-4,2.8-6.6,4c-2.6,1.3-5.7,2-9.1,2
		c-2.7,0-5.3-0.5-7.7-1.6s-4.6-2.4-6.6-4.1c-2-1.7-3.5-3.5-4.6-5.3s-1.8-3.3-2.3-4.6h3.3c1.2,2.6,2.7,4.6,4.6,6
		c1.8,1.4,3.5,2.1,5,2.1c1.7,0,3.5-0.8,5.5-2.3c2-1.5,4.3-3.2,7-5.3c2.2-1.6,4.5-3,6.8-4.3c2.3-1.2,5.1-1.9,8.2-1.9
		c3.2,0,6.6,0.8,10.2,2.5c3.6,1.6,6.7,3.6,9.3,5.8v-3.9c0-2.8-0.1-5.8-0.2-9.1c-0.1-3.2-0.3-6.4-0.4-9.5c-0.2-3.1-0.5-6-0.8-8.7
		c-0.4-2.7-0.8-4.9-1.4-6.6c-1.5-4.5-3.7-7.7-6.5-9.8c-2.8-2-6.7-3-11.5-3c-1.2,0-2.7,0.1-4.4,0.4c-1.7,0.3-3.6,0.9-5.5,1.8
		c-2,1-4.1,2.4-6.4,4.4s-4.5,4.6-6.7,7.9c-1.7,2.5-3.1,5-4.3,7.6c-1.2,2.5-2.1,5-2.9,7.3h-3c0.4-1.4,0.9-3.7,1.4-6.8
		c0.5-3.1,0.8-7.5,0.8-13c0-2-0.1-3.8-0.2-5.3c-0.2-1.5-0.3-3-0.5-4.7h3c0.4,1.3,1.1,2.4,2,3.2c0.9,0.9,2,1.3,3.2,1.3
		c1.3,0,2.7-0.4,4.2-1.2c1.5-0.8,3.4-1.7,5.7-2.9c2.1-1.1,4.2-1.9,6.3-2.5c2.1-0.5,4.3-0.8,6.8-0.8c1.9,0,4.1,0.2,6.7,0.7
		s5.3,1.4,8.1,2.7c2.9,1.3,5.8,3.2,8.7,5.5c2.9,2.4,5.8,5.5,8.5,9.4c4,5.9,6.8,12,8.3,18.4c1.5,6.4,2.3,13.1,2.3,20.2
		c0,3.4-0.4,7.4-1.1,11.9s-2.5,9.5-5.2,14.8c-1.6,3.2-3.6,6.4-5.9,9.5c-2.4,3.1-5,5.8-8,8.3c-3,2.4-6.2,4.3-9.6,5.8
		c-3.5,1.5-7,2.3-10.7,2.3c-3.2,0-5.8-0.4-7.9-1.3c-2.1-0.8-3.6-1.6-4.7-2.2c-2-1.1-3.9-2.2-5.8-3.2c-1.9-1-3.8-1.6-5.8-1.6
		c-0.9,0-2,0.2-3.2,0.5c-1.3,0.3-2.4,1-3.5,2c-1,1-1.9,2.4-2.7,4.2s-1.1,4.1-1.1,7c0,3.5,0.4,6.4,1.2,8.6c0.8,2.3,1.4,3.7,1.8,4.4
		l-3,1.8c-0.8-1.3-1.7-3-2.7-5c-1-2.1-2-4.3-3-6.7c-1-2.4-1.8-4.9-2.5-7.6c-0.7-2.6-1-5.2-1-7.7c0-2.5,0.3-4.7,1-6.5
		c0.7-1.8,1.6-3.4,2.6-4.6s2.3-2.1,3.6-2.6c1.3-0.5,2.7-0.8,4-0.8c1.6,0,3.2,0.3,4.7,1c1.5,0.7,3,1.5,4.4,2.5c1.4,1,2.8,2.2,4.1,3.5
		c1.3,1.3,2.7,2.6,4,3.8c1.9,1.8,4.1,3.5,6.6,5c2.5,1.5,5.6,2.3,9.5,2.3c4,0,7.1-0.9,9.5-2.8c2.3-1.8,4-3.7,5.1-5.6
		c0.7-1.3,1.3-2.8,1.9-4.5c0.5-1.7,1-3.4,1.3-5.2c0.3-1.8,0.5-3.6,0.7-5.4C794.6,82.5,794.7,80.9,794.7,79.4z"/>
		<path class="st1" d="M829.6,4h40.7c7,0,12.8,0.8,17.5,2.5c4.7,1.7,8.4,3.8,11.2,6.5c2.8,2.7,4.8,5.5,5.9,8.7
		c1.1,3.2,1.7,6.2,1.7,9.2c0,3.9-0.7,7.7-2,11.3c-1.3,3.6-3.6,6.8-6.8,9.5c-3.2,2.7-7.6,4.9-13,6.5c-5.5,1.6-12.5,2.4-21,2.4h-3.3
		v45.3H874v3.3h-44.4v-3.3h13.5V7.3h-13.5V4z M860.5,7.3v49.8h8.3c2.3,0,4.7-0.2,7.1-0.7c2.4-0.5,4.7-1.5,6.7-3.2
		c2.1-1.9,3.3-3.9,3.8-6.2c0.4-2.2,0.6-4.2,0.6-6.1V23.5c0-1.8-0.2-3.8-0.6-6.2c-0.4-2.3-1.6-4.3-3.6-6.1c-2.1-1.9-4.6-3-7.3-3.4
		c-2.8-0.3-5-0.5-6.6-0.5H860.5z"/>
		<path class="st1" d="M982.9,7.3h-13.5V4h44.4v3.3h-13.5v98.4h13.5v3.3h-44.4v-3.3h13.5V23l-37.6,73.8v8.9h13.5v3.3h-44.4v-3.3h13.5
		V7.3h-13.5V4h44.4v3.3h-13.5v83.1l37.6-74V7.3z"/>
		<path class="st1" d="M1066.9,0.8h3.9l30.6,104.9h12.6v3.3h-43.6v-3.3h13.5l-8.4-29h-31.7l-5.3,15.5c-0.3,0.9-0.6,2-0.8,3.3
		c-0.3,1.3-0.4,2.3-0.4,3c0,2.8,1.1,4.7,3.3,5.7c2.2,1,4.8,1.5,7.8,1.5h3.3v3.3h-35.8v-3.3l5.1-0.2c3.2-0.1,5.9-1,8-2.8
		c2.1-1.8,3.7-4.1,4.7-6.9L1066.9,0.8z M1045,73.5h29.4L1062,30.7h-2.1L1045,73.5z"/>
		<path class="st1" d="M1125.3,105.7l34.3-98.4h-13.2V4h48.8v3.3h-13.5v98.4h18l-9.1,30.9h-3.3l-5.6-27.6h-54l-8.3,27.6h-3.3
		l-6.1-30.9H1125.3z M1164.3,105.7V7.5h-0.9l-34.8,98.3H1164.3z"/>
		<path class="st1" d="M1298.1,72.8c0,5-1,9.7-2.9,14.1c-2,4.4-4.7,8.2-8.1,11.5c-3.4,3.3-7.5,5.8-12.2,7.7
		c-4.7,1.9-9.8,2.8-15.2,2.8h-48.3v-3.3h13.5V7.3h-13.5V4l45.2,0.2v3.1h-14.3v49c4-3.1,8.4-5.8,13.2-8.1c4.8-2.3,9.3-3.5,13.5-3.5
		c8.9,0,16,2.5,21.3,7.7C1295.5,57.5,1298.1,64.3,1298.1,72.8z M1281.6,72.2c0-15.3-5.3-22.9-15.9-22.9c-8.3,0-16.1,3.8-23.4,11.4
		v44.9h15.3c8.1,0,14.1-2.9,18.1-8.8C1279.6,91,1281.6,82.8,1281.6,72.2z M1312,7.3h-13.5V4h44.4v3.3h-13.5v98.4h13.5v3.3h-44.4
		v-3.3h13.5V7.3z"/>
	</g>
</svg>
